<!--?xml version="1.0" encoding="utf-8"?-->
<!-- Generator: Adobe Illustrator 18.1.1, SVG Export Plug-In . SVG Version: 6.00 Build 0)  -->

<svg version="1.1" id="_x32_" xmlns="http://www.w3.org/2000/svg" xmlns:xlink="http://www.w3.org/1999/xlink" x="0px" y="0px" viewBox="0 0 512 512" style="width: 128px; height: 128px; opacity: 1;" xml:space="preserve">
<style type="text/css">
	.st0{fill:#4B4B4B;}
</style>
<g>
	<path class="st0" d="M505.239,200.77c-7.154-24.514-20.861-49.314-44.076-67.913c-23.168-18.646-55.452-30.354-96.99-30.284
		c-13.176,0-23.761-1.469-32.553-3.853c-15.345-4.224-25.56-11.023-35.445-19.992c-7.361-6.722-14.33-14.776-22.168-23.407
		c-11.731-12.884-25.699-27.176-46.298-37.83C207.109,6.8,180.494,0.146,144.404,0.176C64.644,0.184,0.007,64.821,0,144.58v155.519
		v36.783v113.389c0.007,33.999,27.545,61.536,61.56,61.552H450.44c34.015-0.016,61.552-27.554,61.56-61.552V336.882v-88.328
		C511.992,233.531,510.031,217.155,505.239,200.77z M124.542,480.317H61.56c-8.353-0.008-15.769-3.339-21.253-8.8
		c-5.462-5.492-8.793-12.9-8.8-21.246V336.882v-23.207h65.22v98.328c0,7.7,6.246,13.962,13.954,13.962h13.862V480.317z
		 M248.908,480.317h-110.19v-54.352h15.453c7.708,0,13.954-6.261,13.954-13.962v-98.328h52.968v98.328
		c0,7.7,6.246,13.962,13.954,13.962h13.862V480.317z M373.281,480.317h-110.19v-54.352h15.454c7.699,0,13.946-6.261,13.946-13.962
		v-98.328h52.975v98.328c0,7.7,6.246,13.962,13.946,13.962h13.868V480.317z M480.493,336.882v113.389
		c-0.008,8.346-3.338,15.753-8.8,21.246c-5.484,5.461-12.9,8.792-21.253,8.8h-62.983v-54.352h15.461
		c7.707,0,13.954-6.261,13.954-13.962v-98.328h63.621V336.882z" style="fill: rgb(75, 75, 75);"></path>
</g>
</svg>
